<svg xmlns="http://www.w3.org/2000/svg" width="24" height="24" viewBox="0 0 24 24">
  <g id="ic_列表视图" opacity="0.66">
    <rect id="矩形_92" data-name="矩形 92" width="24" height="24" fill="#fff" opacity="0"/>
    <g id="组_2113" data-name="组 2113" transform="translate(5 7)">
      <path id="路径_2209" data-name="路径 2209" d="M20.941,0H11.761A.579.579,0,0,0,11.2.561V1.948a.579.579,0,0,0,.561.561h9.179a.579.579,0,0,0,.561-.561V.561A.579.579,0,0,0,20.941,0Z" transform="translate(-7.502)" fill="#c3cde5"/>
      <path id="路径_2210" data-name="路径 2210" d="M20.941,12.8H11.761a.579.579,0,0,0-.561.561v1.387a.579.579,0,0,0,.561.561h9.179a.579.579,0,0,0,.561-.561V13.361A.557.557,0,0,0,20.941,12.8Z" transform="translate(-7.502 -8.574)" fill="#c3cde5"/>
      <path id="路径_2211" data-name="路径 2211" d="M20.941,25.3H11.761a.579.579,0,0,0-.561.561v1.387a.579.579,0,0,0,.561.561h9.179a.579.579,0,0,0,.561-.561V25.861A.579.579,0,0,0,20.941,25.3Z" transform="translate(-7.502 -16.946)" fill="#c3cde5"/>
      <path id="路径_2212" data-name="路径 2212" d="M1.948,0H.561A.579.579,0,0,0,0,.561V1.948a.579.579,0,0,0,.561.561H1.948a.579.579,0,0,0,.561-.561V.561A.579.579,0,0,0,1.948,0Z" fill="#c3cde5"/>
      <path id="路径_2213" data-name="路径 2213" d="M1.948,12.5H.561A.579.579,0,0,0,0,13.061v1.387a.579.579,0,0,0,.561.561H1.948a.579.579,0,0,0,.561-.561V13.061A.579.579,0,0,0,1.948,12.5Z" transform="translate(0 -8.373)" fill="#c3cde5"/>
      <path id="路径_2214" data-name="路径 2214" d="M1.948,25.3H.561A.579.579,0,0,0,0,25.861v1.387a.579.579,0,0,0,.561.561H1.948a.579.579,0,0,0,.561-.561V25.861A.579.579,0,0,0,1.948,25.3Z" transform="translate(0 -16.946)" fill="#c3cde5"/>
    </g>
  </g>
</svg>
