<svg id="ic_删除" xmlns="http://www.w3.org/2000/svg" width="24" height="24" viewBox="0 0 24 24">
  <rect id="矩形_89" data-name="矩形 89" width="24" height="24" fill="#c3cde5" opacity="0"/>
  <path id="减去_2" data-name="减去 2" d="M-1452.046-5981h-5.732a1.22,1.22,0,0,1-1.213-1.083l-1.1-9.873h10.348l-1.1,9.873A1.22,1.22,0,0,1-1452.046-5981Zm-4.953-9v7h1v-7Zm3,0v7h1v-7Zm4.563-3.175h-10.956a.609.609,0,0,1-.609-.607.61.61,0,0,1,.609-.609h3.651a.611.611,0,0,1,.609-.609h2.434a.61.61,0,0,1,.609.609h3.651a.61.61,0,0,1,.609.609A.609.609,0,0,1-1449.435-5993.174Z" transform="translate(1466.999 6000)" fill="#c3cde5"/>
</svg>
