<svg id="ic_文件夹" xmlns="http://www.w3.org/2000/svg" width="24" height="24" viewBox="0 0 24 24">
  <rect id="矩形_88" data-name="矩形 88" width="24" height="24" fill="#c3cde5" opacity="0"/>
  <g id="组_2090" data-name="组 2090" transform="translate(5 5)">
    <path id="路径_2207" data-name="路径 2207" d="M23.45,4.79h3.29a3.082,3.082,0,0,1,.595.07V3.285A1.09,1.09,0,0,0,26.25,2.2H21.7Z" transform="translate(-14.105 -1.43)" fill="#c3cde5"/>
    <path id="路径_2208" data-name="路径 2208" d="M12.635,4.41H8.925a.341.341,0,0,1-.35-.28L6.23.595A1.3,1.3,0,0,0,5.11,0H1.365A1.39,1.39,0,0,0,0,1.365v10.29A1.367,1.367,0,0,0,1.365,13.02h11.27A1.367,1.367,0,0,0,14,11.655V5.775A1.345,1.345,0,0,0,12.635,4.41ZM11.9,7.35H7.98a.35.35,0,0,1,0-.7H11.9a.35.35,0,1,1,0,.7Z" fill="#c3cde5"/>
  </g>
</svg>
