<svg id="ic_网格视图" xmlns="http://www.w3.org/2000/svg" width="24" height="24" viewBox="0 0 24 24">
  <rect id="矩形_91" data-name="矩形 91" width="24" height="24" fill="#3663fd" opacity="0"/>
  <g id="组_2114" data-name="组 2114" transform="translate(5 5)">
    <path id="路径_2215" data-name="路径 2215" d="M3.215,0H1.037A1.019,1.019,0,0,0,0,1.037V3.215A1.019,1.019,0,0,0,1.037,4.252H3.215A1.019,1.019,0,0,0,4.252,3.215V1.037A1.019,1.019,0,0,0,3.215,0Z" fill="#3663fd"/>
    <path id="路径_2216" data-name="路径 2216" d="M17.315,0H15.137A1.019,1.019,0,0,0,14.1,1.037V3.215a1.019,1.019,0,0,0,1.037,1.037h2.178a1.019,1.019,0,0,0,1.037-1.037V1.037A1.019,1.019,0,0,0,17.315,0Z" transform="translate(-9.226)" fill="#3663fd"/>
    <path id="路径_2217" data-name="路径 2217" d="M31.415,0H29.237A1.019,1.019,0,0,0,28.2,1.037V3.215a1.019,1.019,0,0,0,1.037,1.037h2.178a1.019,1.019,0,0,0,1.037-1.037V1.037A1.019,1.019,0,0,0,31.415,0Z" transform="translate(-18.452)" fill="#3663fd"/>
    <path id="路径_2218" data-name="路径 2218" d="M3.215,13.3H1.037A1.019,1.019,0,0,0,0,14.337v2.178a1.019,1.019,0,0,0,1.037,1.037H3.215a1.019,1.019,0,0,0,1.037-1.037V14.337A1.04,1.04,0,0,0,3.215,13.3Z" transform="translate(0 -8.702)" fill="#3663fd"/>
    <path id="路径_2219" data-name="路径 2219" d="M17.315,13.3H15.137A1.019,1.019,0,0,0,14.1,14.337v2.178a1.019,1.019,0,0,0,1.037,1.037h2.178a1.019,1.019,0,0,0,1.037-1.037V14.337A1.04,1.04,0,0,0,17.315,13.3Z" transform="translate(-9.226 -8.702)" fill="#3663fd"/>
    <path id="路径_2220" data-name="路径 2220" d="M31.415,13.3H29.237A1.019,1.019,0,0,0,28.2,14.337v2.178a1.019,1.019,0,0,0,1.037,1.037h2.178a1.019,1.019,0,0,0,1.037-1.037V14.337A1.04,1.04,0,0,0,31.415,13.3Z" transform="translate(-18.452 -8.702)" fill="#3663fd"/>
    <path id="路径_2221" data-name="路径 2221" d="M3.215,26.7H1.037A1.019,1.019,0,0,0,0,27.737v2.178a1.019,1.019,0,0,0,1.037,1.037H3.215a1.019,1.019,0,0,0,1.037-1.037V27.737A1.019,1.019,0,0,0,3.215,26.7Z" transform="translate(0 -17.47)" fill="#3663fd"/>
    <path id="路径_2222" data-name="路径 2222" d="M17.315,26.7H15.137A1.019,1.019,0,0,0,14.1,27.737v2.178a1.019,1.019,0,0,0,1.037,1.037h2.178a1.019,1.019,0,0,0,1.037-1.037V27.737A1.019,1.019,0,0,0,17.315,26.7Z" transform="translate(-9.226 -17.47)" fill="#3663fd"/>
    <path id="路径_2223" data-name="路径 2223" d="M31.415,26.7H29.237A1.019,1.019,0,0,0,28.2,27.737v2.178a1.019,1.019,0,0,0,1.037,1.037h2.178a1.019,1.019,0,0,0,1.037-1.037V27.737A1.019,1.019,0,0,0,31.415,26.7Z" transform="translate(-18.452 -17.47)" fill="#3663fd"/>
  </g>
</svg>
