<svg xmlns="http://www.w3.org/2000/svg" width="24" height="24" viewBox="0 0 24 24">
  <g id="ic_详情" opacity="0.66">
    <rect id="矩形_87" data-name="矩形 87" width="24" height="24" fill="#fff" opacity="0"/>
    <path id="路径_2206" data-name="路径 2206" d="M11.716,2.358,9.505.147C9.432,0,9.358,0,9.284,0H.589A.634.634,0,0,0,0,.589V13.411A.581.581,0,0,0,.589,14H11.2a.581.581,0,0,0,.589-.589V2.579C11.863,2.505,11.789,2.432,11.716,2.358ZM2.726,3.684H5.895a.317.317,0,0,1,.295.295c0,.147-.074.368-.295.368H2.726a.317.317,0,0,1-.295-.295C2.432,3.905,2.505,3.684,2.726,3.684Zm6.558,8.179H2.726a.295.295,0,1,1,0-.589H9.284a.295.295,0,0,1,0,.589Zm0-2.505H2.726a.295.295,0,1,1,0-.589H9.284a.295.295,0,0,1,0,.589Zm0-2.505H2.726a.295.295,0,1,1,0-.589H9.284a.295.295,0,0,1,0,.589Zm2.137-3.611c-.074.147-.147.221-.295.221H9.211a.581.581,0,0,1-.589-.589V.884c0-.147.074-.221.221-.295s.221,0,.368.074l2.211,2.211C11.421,3.021,11.495,3.168,11.421,3.242Z" transform="translate(6 5)" fill="#fff"/>
  </g>
</svg>
