<svg xmlns="http://www.w3.org/2000/svg" width="24" height="24" viewBox="0 0 24 24">
  <g id="组_2345" data-name="组 2345" transform="translate(-2664 -2872)" opacity="0.66">
    <rect id="矩形_118" data-name="矩形 118" width="24" height="24" transform="translate(2664 2872)" fill="#fff" opacity="0"/>
    <path id="路径_2292" data-name="路径 2292" d="M39,46a7,7,0,1,1,7-7A7,7,0,0,1,39,46Zm-.861-7.467V41.98a.79.79,0,0,0,1.579,0V38.533a.79.79,0,1,0-1.579,0Zm.784-3.3a.727.727,0,0,0-.548.221.715.715,0,0,0-.236.564.748.748,0,0,0,.236.563.737.737,0,0,0,.548.232.84.84,0,0,0,.569-.221.785.785,0,0,0,.225-.574.743.743,0,0,0-.225-.564.76.76,0,0,0-.569-.221Z" transform="translate(2637 2845)" fill="#fff"/>
  </g>
</svg>
