<svg xmlns="http://www.w3.org/2000/svg" width="24" height="24" viewBox="0 0 24 24">
  <g id="组_2344" data-name="组 2344" transform="translate(-2664 -2840)" opacity="0.66">
    <rect id="矩形_117" data-name="矩形 117" width="24" height="24" transform="translate(2664 2840)" fill="#fff" opacity="0"/>
    <g id="组_2343" data-name="组 2343" transform="translate(2412.5 2581.5)">
      <path id="路径_2291" data-name="路径 2291" d="M263.5,263.5a7,7,0,1,0,7,7A7,7,0,0,0,263.5,263.5Zm2.967,6.084h-1.654v3.938a.439.439,0,0,1-.437.438h-1.75a.439.439,0,0,1-.437-.437v-3.937h-1.654a.22.22,0,0,1-.156-.375l2.811-2.811a.439.439,0,0,1,.618,0l2.811,2.811A.217.217,0,0,1,266.467,269.584Z" fill="#fff"/>
    </g>
  </g>
</svg>
