<svg xmlns="http://www.w3.org/2000/svg" width="24" height="24" viewBox="0 0 24 24">
  <g id="密码修改" transform="translate(-2664 -2766)" opacity="0.66">
    <rect id="矩形_88" data-name="矩形 88" width="24" height="24" transform="translate(2664 2766)" fill="#fff" opacity="0"/>
    <path id="路径_2289" data-name="路径 2289" d="M162.211,65.719h-6.3V63.386a2.167,2.167,0,0,1,4.2,0v.7h.008a.816.816,0,0,0,1.616,0h.009v-.7a3.767,3.767,0,0,0-7.467,0v2.334h-.467a1.4,1.4,0,0,0-1.4,1.4v5.6a1.4,1.4,0,0,0,1.4,1.4h8.4a1.4,1.4,0,0,0,1.4-1.4v-5.6a1.4,1.4,0,0,0-1.4-1.4Zm-3.5,5.169v.638a.7.7,0,1,1-1.4,0v-.638a1.634,1.634,0,1,1,1.4,0Z" transform="translate(2517.588 2710.881)" fill="#fff"/>
  </g>
</svg>
