<svg xmlns="http://www.w3.org/2000/svg" width="44" height="44" viewBox="0 0 44 44">
  <g id="报告导出" transform="translate(-45 -87)" opacity="0.88">
    <rect id="矩形_111" data-name="矩形 111" width="44" height="44" transform="translate(45 87)" fill="#fff" opacity="0"/>
    <g id="组_2428" data-name="组 2428" transform="translate(54 93)">
      <path id="路径_2359" data-name="路径 2359" d="M22.278,4.2h-2.45c0,.153.077.306.077.459V5.5a2.663,2.663,0,0,1-2.679,2.679H9.34A2.663,2.663,0,0,1,6.66,5.5V4.659A.971.971,0,0,1,6.737,4.2H4.211A4.2,4.2,0,0,0,0,8.411V28.774a4.248,4.248,0,0,0,4.211,4.211H22.278a4.248,4.248,0,0,0,4.211-4.211V8.411A4.2,4.2,0,0,0,22.278,4.2ZM15.464,26.631H4.44a.766.766,0,1,1,0-1.531H15.464a.766.766,0,1,1,0,1.531Zm0-6.124H4.44a.766.766,0,0,1,0-1.531H15.464a.766.766,0,0,1,0,1.531Zm7.043-6.048H4.44a.766.766,0,0,1,0-1.531H22.507a.766.766,0,1,1,0,1.531Z" transform="translate(0 -0.985)" fill="#fff"/>
      <path id="路径_2360" data-name="路径 2360" d="M19.422,6.507H11.614A1.9,1.9,0,0,1,9.7,4.593V3.675a1.9,1.9,0,0,1,1.914-1.914h1.608a2.378,2.378,0,0,1,4.593,0h1.608a1.9,1.9,0,0,1,1.914,1.914v.842A1.961,1.961,0,0,1,19.422,6.507Z" transform="translate(-2.274)" fill="#fff"/>
    </g>
  </g>
</svg>
