<svg xmlns="http://www.w3.org/2000/svg" width="44" height="44" viewBox="0 0 44 44">
  <g id="数据包导出" transform="translate(-45 -220)">
    <rect id="矩形_111" data-name="矩形 111" width="44" height="44" transform="translate(45 220)" fill="#c7cfe8" opacity="0"/>
    <g id="组_2430" data-name="组 2430" transform="translate(52 226)">
      <circle id="椭圆_125" data-name="椭圆 125" cx="1.005" cy="1.005" r="1.005" transform="translate(23.575 13.449)" fill="#c7cfe8"/>
      <circle id="椭圆_126" data-name="椭圆 126" cx="1.005" cy="1.005" r="1.005" transform="translate(23.575 22.57)" fill="#c7cfe8"/>
      <path id="路径_2361" data-name="路径 2361" d="M29.836,13.6c-2.242,2.551-7.807,4.329-14.377,4.329h-.928C7.961,17.932,2.4,16.155.155,13.6l-.077.077v4.638C2.242,20.947,7.884,22.8,14.531,22.8h.928c6.647,0,12.29-1.855,14.454-4.483V13.681ZM15.459,0h-.928C7.807,0,2.164,1.855,0,4.483V9.121L.077,9.2c2.242,2.551,7.807,4.329,14.377,4.329h.928c6.57,0,12.135-1.778,14.377-4.329l.077-.077V4.483C27.749,1.855,22.106,0,15.459,0ZM29.836,22.8c-2.242,2.551-7.807,4.329-14.377,4.329h-.928C7.961,27.13,2.4,25.353.155,22.8l-.077.077v4.638C2.242,30.145,7.884,32,14.531,32h.928c6.647,0,12.29-1.855,14.454-4.483V22.879Z" fill="#c7cfe8"/>
    </g>
  </g>
</svg>
