<svg id="标记_outline" xmlns="http://www.w3.org/2000/svg" width="24" height="24" viewBox="0 0 24 24">
  <rect id="矩形_250_1_" width="24" height="24" fill="#fff" opacity="0"/>
  <g id="路径_2275_1_">
    <path id="路径_2362" data-name="路径 2362" d="M6.6,19.5a1.032,1.032,0,0,1-1.1-1.1V5.6A1.11,1.11,0,0,1,6.6,4.5H17.1a1.11,1.11,0,0,1,1.1,1.1V18.5a.909.909,0,0,1-.4.8,1.135,1.135,0,0,1-.8.3.908.908,0,0,1-.7-.3l-4.5-4h-.1l-4.5,4A1.072,1.072,0,0,1,6.6,19.5Zm5.2-5.3a.908.908,0,0,1,.7.3L17,18.6h0a.1.1,0,0,0,.1-.1V5.7a.1.1,0,0,0-.1-.1H6.6a.1.1,0,0,0-.1.1V18.5a.1.1,0,0,0,.1.1l4.5-4A.672.672,0,0,1,11.8,14.2Z" fill="#00d0fc"/>
  </g>
</svg>
