<svg xmlns="http://www.w3.org/2000/svg" width="24" height="24" viewBox="0 0 24 24">
  <g id="案例创建" transform="translate(-388 -164)">
    <rect id="矩形_60" data-name="矩形 60" width="24" height="24" transform="translate(388 164)" fill="#fff" opacity="0"/>
    <g id="组_164" data-name="组 164" transform="translate(393 167)" opacity="0.88">
      <path id="路径_21" data-name="路径 21" d="M12.986,0H1.438A1.456,1.456,0,0,0,0,1.438V16.562A1.456,1.456,0,0,0,1.438,18H12.986a1.456,1.456,0,0,0,1.438-1.438V1.438A1.456,1.456,0,0,0,12.986,0ZM3.575,4.274a.48.48,0,0,1,.247-.247.946.946,0,0,0,.575-.37.937.937,0,0,0,.247-.493l.041-.247.329-.123,1.192-.452c.247-.082.534-.205.781-.288a.7.7,0,0,1,.411,0c.247.082.534.205.781.288l1.438.534h.164l.041.205a.965.965,0,0,0,.288.575,1.059,1.059,0,0,0,.534.329c.041,0,.082.041.123.041a.346.346,0,0,1,.164.288v.616a1.541,1.541,0,0,1-.041.452c-.041.205-.041.411-.082.616a2.557,2.557,0,0,1-.164.658c-.082.247-.164.493-.247.7a2,2,0,0,0-.123.288l.041.164a8.15,8.15,0,0,1-.452.822c-.082.123-.205.247-.288.37-.082.082-.164.205-.247.288A2.349,2.349,0,0,1,9,9.575c-.123.082-.247.205-.37.288-.164.082-.288.205-.452.288a1.92,1.92,0,0,1-.411.205,1.46,1.46,0,0,1-.37.164H7.274a1.78,1.78,0,0,1-.205-.041l-.082-.041c-.164-.082-.288-.123-.452-.205a2.332,2.332,0,0,1-.74-.493c-.123-.082-.247-.205-.37-.288a1.108,1.108,0,0,1-.288-.329c-.123-.164-.247-.288-.37-.452a5.158,5.158,0,0,1-.452-.7c-.164-.329-.288-.658-.411-.945-.082-.247-.123-.493-.205-.74-.041-.164-.041-.329-.082-.493V5.753c0-.164-.041-.288-.041-.452V4.274Zm-.74,7.479h6a.411.411,0,1,1,0,.822h-6a.388.388,0,0,1-.411-.411A.412.412,0,0,1,2.836,11.753Zm8.877,3.411H2.836a.411.411,0,0,1,0-.822h8.877a.388.388,0,0,1,.411.411A.412.412,0,0,1,11.712,15.164Z" fill="#fff"/>
      <path id="路径_22" data-name="路径 22" d="M10.2,8.989a1.4,1.4,0,0,0,.041.411v.041a1.748,1.748,0,0,0,.082.452c.041.247.123.452.164.7.082.288.205.534.329.863a4.06,4.06,0,0,0,.37.616c.123.164.247.288.329.411l.247.247c.123.082.205.205.329.288a3.549,3.549,0,0,0,.658.411,3.819,3.819,0,0,0,.411.205H13.2c.041-.041.123-.041.164-.082a3.819,3.819,0,0,0,.411-.205c.123-.082.288-.164.411-.247s.205-.164.329-.247c.082-.082.205-.164.288-.247s.123-.164.205-.247a2.058,2.058,0,0,1,.288-.329,3.9,3.9,0,0,0,.411-.7l.041-.082c.041-.082.082-.123.082-.205.082-.205.164-.452.247-.7q.062-.247.123-.616c.041-.205.041-.37.082-.575a1.843,1.843,0,0,1,.041-.452v-.37a1.375,1.375,0,0,1-.7-.493,1.894,1.894,0,0,1-.37-.7l-1.192-.452c-.288-.082-.534-.205-.822-.288-.247.082-.534.205-.781.288l-1.192.452a1.894,1.894,0,0,1-.37.7,2.7,2.7,0,0,1-.7.493v.041C10.2,8.619,10.2,8.784,10.2,8.989Zm1.11,0c.123,0,.205-.041.329-.041s.205-.041.329-.041.205-.041.329-.041c.082,0,.164-.041.247-.041h.082l.041-.041c.123-.205.205-.452.329-.658s.205-.411.329-.616h0a2.44,2.44,0,0,0,.164.329c.164.329.288.616.452.945.041.041.041.082.082.082.164,0,.288.041.452.041.123,0,.247.041.37.041s.205.041.329.041c.082,0,.164.041.288.041a1.9,1.9,0,0,0-.288.288l-.041.041-.616.616-.082.082a.151.151,0,0,0-.041.123c.041.164.041.288.082.452.041.123.041.288.082.411s.041.288.082.411a.151.151,0,0,0,.041.123l-.247-.123c-.082-.041-.123-.082-.205-.123a2.2,2.2,0,0,0-.452-.205c-.164-.082-.288-.164-.452-.247h-.041c-.247.123-.493.247-.7.37a4.483,4.483,0,0,0-.452.247c-.041,0-.082.041-.123.082.041-.164.041-.288.082-.452s.041-.288.082-.452c.041-.123.041-.288.082-.411V10.1a3.705,3.705,0,0,0-.411-.37L11.515,9.4l-.288-.288-.041-.041C11.186,9.03,11.268,9.03,11.31,8.989Z" transform="translate(-6.008 -3.77)" fill="#fff"/>
    </g>
  </g>
</svg>
