<svg xmlns="http://www.w3.org/2000/svg" width="24" height="24" viewBox="0 0 24 24">
  <g id="清除" transform="translate(-1060 -137)" opacity="0.88">
    <rect id="矩形_64" data-name="矩形 64" width="24" height="24" transform="translate(1060 137)" fill="#fff" opacity="0"/>
    <g id="组_190" data-name="组 190" transform="translate(1065 142)">
      <path id="路径_23" data-name="路径 23" d="M12.749,14.5H2.347A1.294,1.294,0,0,0,1.1,15.782V17.1H14V15.782A1.293,1.293,0,0,0,12.749,14.5Z" transform="translate(-0.708 -9.335)" fill="#fff"/>
      <path id="路径_24" data-name="路径 24" d="M18.2,1.389A1.354,1.354,0,0,0,16.88,0,1.325,1.325,0,0,0,15.6,1.389V4.56h2.6V1.389Z" transform="translate(-10.04)" fill="#fff"/>
      <path id="路径_25" data-name="路径 25" d="M.392,28.032A1.876,1.876,0,0,1,0,29.35H1.282a1.307,1.307,0,0,0,1.247-1.211V25.467a.356.356,0,1,1,.712,0v2.707a2.164,2.164,0,0,1-.463,1.176H5.45a1.338,1.338,0,0,0,1.318-1.318v-2.1a.356.356,0,1,1,.712,0v2.1a2.116,2.116,0,0,1-.463,1.318H9.333a1.263,1.263,0,0,0,1.211-1.282v-3.1a.356.356,0,0,1,.712,0v3.1a2.116,2.116,0,0,1-.463,1.318h1.318A1.294,1.294,0,0,0,13.359,28.1V23.9H.392Z" transform="translate(0 -15.386)" fill="#fff"/>
    </g>
  </g>
</svg>
