<svg xmlns="http://www.w3.org/2000/svg" width="24" height="24" viewBox="0 0 24 24">
  <g id="系统设置" transform="translate(-2664 -2702)" opacity="0.88">
    <rect id="矩形_87" data-name="矩形 87" width="24" height="24" transform="translate(2664 2702)" fill="#fff" opacity="0"/>
    <path id="路径_2288" data-name="路径 2288" d="M100.091,103.089a3.01,3.01,0,1,0-2.994-3A3.01,3.01,0,0,0,100.091,103.089Zm-7-3a7.871,7.871,0,0,1,.14-1.482,2.625,2.625,0,0,0,2.014-1.357,2.851,2.851,0,0,0,.1-2.559,6.926,6.926,0,0,1,2.625-1.6,2.559,2.559,0,0,0,4.313,0,6.945,6.945,0,0,1,2.613,1.622,2.835,2.835,0,0,0,.124,2.539,2.613,2.613,0,0,0,1.944,1.318,7.72,7.72,0,0,1-.054,3.228,2.648,2.648,0,0,0-1.882,1.349,2.835,2.835,0,0,0-.194,2.333,6.953,6.953,0,0,1-2.711,1.61,2.551,2.551,0,0,0-4.033,0,6.887,6.887,0,0,1-2.668-1.587,2.843,2.843,0,0,0-.179-2.376,2.629,2.629,0,0,0-1.944-1.357A7.708,7.708,0,0,1,93.091,100.091Z" transform="translate(2575.909 2613.909)" fill="#fff"/>
  </g>
</svg>
